<?xml version="1.0" encoding="utf-8"?>
<!-- Generator: Adobe Illustrator 27.5.0, SVG Export Plug-In . SVG Version: 6.00 Build 0)  -->
<svg version="1.1" xmlns="http://www.w3.org/2000/svg" xmlns:xlink="http://www.w3.org/1999/xlink" x="0px" y="0px"
	 viewBox="0 0 3710 3710" style="enable-background:new 0 0 3710 3710;" xml:space="preserve">
<g id="Illustration">
		<g>
			<g>
				<g>
					
						<linearGradient id="SVGID_00000107586238397466658800000003998797002088741304_" gradientUnits="userSpaceOnUse" x1="1515.8009" y1="1374.2701" x2="1636.0334" y2="1374.2701">
						<stop  offset="0" style="stop-color:#311944"/>
						<stop  offset="1" style="stop-color:#A03976"/>
					</linearGradient>
					<path style="fill:url(#SVGID_00000107586238397466658800000003998797002088741304_);" d="M1515.801,1259.494l105.627,225.023
						l14.606,4.53c0,0-9.136-84.537-11.193-90.379c-2.056-5.839-41.611-126.551-41.611-126.551L1515.801,1259.494z"/>
					<g>
						
							<linearGradient id="SVGID_00000001635543219487743360000000920474382495065525_" gradientUnits="userSpaceOnUse" x1="1694.1121" y1="1104.2656" x2="1329.9696" y2="719.1959">
							<stop  offset="0" style="stop-color:#311944"/>
							<stop  offset="1" style="stop-color:#A03976"/>
						</linearGradient>
						<path style="fill:url(#SVGID_00000001635543219487743360000000920474382495065525_);" d="M1987.618,748.506l-799.248-62.642
							c-15.266-0.591-27.877,13.116-27.877,30.23v522.048c0,17.597,13.303,32.595,28.969,32.585l734.149-46.259
							c17.28-0.113,105.645,31.994,105.645,14.193V751.292C2029.256,732.96,2005.751,749.282,1987.618,748.506z"/>
					</g>
					<g>
						
							<linearGradient id="SVGID_00000113311597888752389170000012866884983505724083_" gradientUnits="userSpaceOnUse" x1="1172.8694" y1="1087.4457" x2="2044.9156" y2="1087.4457">
							<stop  offset="0" style="stop-color:#FF9085"/>
							<stop  offset="1" style="stop-color:#FB6FBB"/>
						</linearGradient>
						<path style="fill:url(#SVGID_00000113311597888752389170000012866884983505724083_);" d="M2012.14,717.224l-811.294-31.36
							c-15.32-0.592-27.977,13.139-27.977,30.284v522.975c0,17.628,13.351,32.655,29.072,32.647l337.23-0.356l96.862,217.632
							l78.724-218.521l298.747,0.881c17.685-0.008,31.411-13.804,31.411-31.641V751.423
							C2044.916,733.054,2030.388,717.929,2012.14,717.224z"/>
					</g>
					
						<linearGradient id="SVGID_00000016758464533483096870000009488345711672117171_" gradientUnits="userSpaceOnUse" x1="1172.8694" y1="982.1191" x2="2044.9156" y2="982.1191">
						<stop  offset="0" style="stop-color:#FF9085"/>
						<stop  offset="1" style="stop-color:#FB6FBB"/>
					</linearGradient>
					<path style="opacity:0.3;fill:url(#SVGID_00000016758464533483096870000009488345711672117171_);" d="M2036.123,728.565
						l-853.458-35.758c-5.974,5.546-9.795,13.921-9.795,23.341v77.128c14.629-6.691,27.056-7.841,37.19-6.749
						c28.169,3.037,34.928,22.833,89.607,52.443c51.897,28.104,57.386,16.733,80.541,36.917
						c45.034,39.255,25.27,82.442,64.988,124.922c41.827,44.736,78.305,13.053,139.573,57.143
						c65.864,47.398,44.652,98.087,99.5,132.274c78.218,48.754,159.796-29.097,229.056,19.868
						c21.189,14.98,34.797,37.306,43.595,61.336l56.584-0.025c17.685-0.008,31.411-13.804,31.411-31.641V751.423
						C2044.916,742.656,2041.576,734.644,2036.123,728.565z"/>
				</g>
			</g>
			<g>
				<path style="fill:#FFFFFF;" d="M1394.894,1087.202l-33.451,0.334v-78.095l-64.033-0.459v79.194l-35.029,0.35V903.641
					l35.029,1.043V976.6l64.033,0.908v-70.918l33.451,0.996V1087.202z"/>
				<path style="fill:#FFFFFF;" d="M1531.755,1085.833l-86.764,0.867V909.078l86.764,2.583v30.26l-54.424-1.244v38.717l50.683,0.716
					v30.286l-50.683-0.366v45.47l54.424-0.165V1085.833z"/>
				<path style="fill:#FFFFFF;" d="M1572.538,1085.426v-172.55l30.526,0.909v141.335l57.216-0.174v29.604L1572.538,1085.426z"/>
				<path style="fill:#FFFFFF;" d="M1693.942,1084.212V916.49l28.847,0.859v137.407l54.1-0.164v28.792L1693.942,1084.212z"/>
				<path style="fill:#FFFFFF;" d="M1923.118,1002.4c0,26.254-5.034,46.442-15.14,60.616
					c-10.157,14.245-24.807,21.496-44.047,21.698c-19.423,0.205-34.465-6.854-45.025-21.232
					c-10.615-14.453-15.943-35.305-15.943-62.501c0-27.192,5.342-47.845,15.988-61.901c10.589-13.984,25.672-20.649,45.153-20.057
					c19.295,0.586,33.928,8.091,44,22.463C1918.127,955.786,1923.118,976.074,1923.118,1002.4z M1831.659,1001.49
					c0,18.128,2.716,31.783,8.138,40.949c5.408,9.144,13.461,13.688,24.134,13.65c21.232-0.074,31.766-18.062,31.766-53.963
					c0-35.973-10.475-54.206-31.593-54.699c-10.672-0.25-18.756,4.149-24.218,13.221
					C1834.404,969.745,1831.659,983.365,1831.659,1001.49z"/>
				<path style="fill:#FFFFFF;" d="M1951.274,1066.235c0-6.031,1.238-10.597,3.715-13.691c2.471-3.087,6.064-4.637,10.771-4.644
					c4.533-0.007,8.033,1.562,10.512,4.696c2.472,3.131,3.707,7.619,3.707,13.463c0,5.632-1.25,10.082-3.749,13.351
					c-2.504,3.271-5.992,4.933-10.471,4.981c-4.597,0.049-8.164-1.508-10.69-4.674
					C1952.54,1076.548,1951.274,1072.053,1951.274,1066.235z M1975.823,1029.472l-20.01-0.064l-4.208-105.247l28.374,0.845
					L1975.823,1029.472z"/>
			</g>
		</g>
		<g>
			<g>
				
					<linearGradient id="SVGID_00000054233717690598462120000001371935311965156481_" gradientUnits="userSpaceOnUse" x1="2041.421" y1="2207.281" x2="2809.2451" y2="2207.281">
					<stop  offset="0" style="stop-color:#444B8C"/>
					<stop  offset="0.9964" style="stop-color:#26264F"/>
				</linearGradient>
				<path style="fill:url(#SVGID_00000054233717690598462120000001371935311965156481_);" d="M2809.245,1995.409v410.789
					c0,23.761-20.38,44.487-44.167,45.502l-551.615,22.459h-0.099l-11.299-0.704c-8.746,0.372-16.799-2.384-23.836-6.473
					c-13.181-7.631-21.755-22.428-21.755-38.832v-270.696c0-22.324-7.26-44.253-20.168-62.489l-92.358-130.108
					c-3.643-5.129-3.315-13.454,0.773-18.237l3.897-6.219h0.024l43.758,1.536l669.345,7.93c2.131,0.024,5.984,0.459,8.016,0.756
					C2791.169,1953.92,2809.245,1973.184,2809.245,1995.409z"/>
				<g>
					
						<linearGradient id="SVGID_00000037692164062312678780000002822398539978062269_" gradientUnits="userSpaceOnUse" x1="2048.166" y1="2207.281" x2="2827.2776" y2="2207.281">
						<stop  offset="0.0036" style="stop-color:#6165D7"/>
						<stop  offset="1" style="stop-color:#AA80F9"/>
					</linearGradient>
					<path style="fill:url(#SVGID_00000037692164062312678780000002822398539978062269_);" d="M2827.278,1995.405v410.799
						c0,23.764-19.509,43.328-43.248,44.347l-561.784,22.915c-2.86,0.125-6.065,0.694-8.774,0.694h-0.1
						c-11.633,0-22.502-9.169-29.287-18.144c-5.668-7.407-9.578-17.82-9.578-27.862v-270.701c0-22.322-6.356-44.098-19.282-62.318
						l-107.059-151.359l0.064-1.998l44.881-1.375h0.199l674.713,8.659l14.441,1.061
						C2806.824,1950.321,2827.278,1971.043,2827.278,1995.405z"/>
					<g style="opacity:0.48;">
						<path style="fill:#FFFFFF;" d="M2827.278,2401.506v4.697c0,23.764-19.509,43.328-43.248,44.347l-561.784,22.915
							c-2.86,0.125-6.065,0.694-8.774,0.694h-0.1c-11.633,0-22.502-9.169-29.287-18.144c-5.668-7.407-9.578-17.82-9.578-27.862
							v-270.701c0-22.322-6.356-44.098-19.282-62.318l-107.059-151.359l0.064-0.175l44.688,0.448
							c0.051,0.05,0.172,0.099,0.221,0.149c36.219,45.117,59.782,92.073,132.814,126.974
							c50.512,24.161,89.289,25.429,125.333,21.924c20.731-2.014,40.581-5.693,61.312-7.507c31.296-2.733,64.537-1.417,105.8,15.811
							c160.036,66.768,150.468,251.038,287.309,295.086c1.641,0.546,4.225,1.068,5.914,1.566
							C2816.367,2399.443,2820.065,2400.561,2827.278,2401.506z"/>
					</g>
				</g>
			</g>
			<g>
				<path style="fill:#FFFFFF;" d="M2334.362,2296.58l-26.843,0.802v-58.764l-50.701,1.208v59.071l-27.362,0.817v-137.25
					l27.362-0.434v53.641l50.701-1.083v-53.363l26.843-0.426V2296.58z"/>
				<path style="fill:#FFFFFF;" d="M2487.69,2225.002c0,22.119-5.037,39.257-15.127,51.429
					c-10.111,12.198-24.642,18.592-43.633,19.163c-19.064,0.573-33.756-4.983-44.032-16.691
					c-10.298-11.732-15.455-28.867-15.455-51.385c0-22.516,5.17-39.808,15.499-51.859c10.304-12.025,25.037-18.176,44.159-18.475
					c19.046-0.298,33.562,5.402,43.589,17.079C2482.695,2185.915,2487.69,2202.823,2487.69,2225.002z M2397.311,2227.067
					c0,15.073,2.65,26.353,7.946,33.837c5.29,7.479,13.184,11.069,23.673,10.78c20.963-0.578,31.412-15.931,31.412-46.057
					c0-30.187-10.39-45.093-31.241-44.716c-10.489,0.19-18.412,4.156-23.756,11.907
					C2399.989,2200.578,2397.311,2211.997,2397.311,2227.067z"/>
				<path style="fill:#FFFFFF;" d="M2521.585,2290.986v-133.153l25.755-0.408v109.539l48.883-1.34v23.133L2521.585,2290.986z"/>
				<path style="fill:#FFFFFF;" d="M2697.74,2285.723l-8.516-30.88l-43.047,1.142l-8.61,31.535l-27.228,0.814l41.999-133.114
					l30.612-0.484l41.515,130.188L2697.74,2285.723z M2683.271,2231.724c-7.896-28.063-12.345-43.957-13.34-47.643
					c-0.997-3.687-1.71-6.604-2.141-8.748c-1.777,7.686-6.869,26.717-15.29,57.13L2683.271,2231.724z"/>
				<path style="fill:#FFFFFF;" d="M2741.939,2271.68c0-4.981,1.192-8.781,3.576-11.396c2.381-2.611,5.846-3.981,10.392-4.103
					c4.383-0.118,7.772,1.095,10.174,3.632c2.397,2.536,3.596,6.229,3.596,11.076c0,4.671-1.213,8.388-3.636,11.152
					c-2.426,2.763-5.803,4.211-10.134,4.342c-4.439,0.134-7.88-1.082-10.313-3.646
					C2743.157,2280.171,2741.939,2276.485,2741.939,2271.68z M2765.646,2240.656l-19.337,0.488l-4.051-86.809l27.419-0.435
					L2765.646,2240.656z"/>
			</g>
		</g>
		<g>
			<g>
				<path style="fill:#552D63;" d="M2647.29,1157.216c-85.803,0-165.191,20.891-229.868,56.33
					c-99.368,54.441-164.067,143.273-164.067,243.598c0,56.96,20.842,110.212,57.075,155.584l-38.004,101.026
					c-2.982,7.92,2.198,16.009,9.767,17.463l-0.011,0.014c0,0,0.122,0.013,0.293,0.031c0.579,0.098,1.169,0.154,1.772,0.172
					c3.902,0.348,12.462,0.933,17.888-0.017c-0.483-0.886-0.991-1.792-1.508-2.698c35.711-6.625,89.982-16.589,126.521-22.822
					c62.833,32.315,138.585,51.178,220.143,51.178c119.584,0,226.743-40.569,298.994-104.64
					c59.177-52.46,94.942-120.681,94.942-195.29C3041.226,1291.489,2864.845,1157.216,2647.29,1157.216z"/>
				<g>
					<g>
						
							<linearGradient id="SVGID_00000051375237202696132800000002897433562987555227_" gradientUnits="userSpaceOnUse" x1="2269.7964" y1="1457.1448" x2="3057.6692" y2="1457.1448">
							<stop  offset="0" style="stop-color:#FFC444"/>
							<stop  offset="0.9964" style="stop-color:#F36F56"/>
						</linearGradient>
						<path style="fill:url(#SVGID_00000051375237202696132800000002897433562987555227_);" d="M3057.669,1457.145
							c0,74.609-35.765,142.83-94.942,195.29c-72.252,64.071-179.41,104.64-298.994,104.64c-81.558,0-157.311-18.862-220.144-51.177
							c-41.549,7.088-106.039,19.002-140.079,25.344c-10.002,1.865-18.233-7.95-14.643-17.487l38.004-101.026
							c-36.232-45.372-57.075-98.624-57.075-155.583c0-100.326,64.7-189.157,164.068-243.599
							c64.677-35.439,144.066-56.33,229.868-56.33C2881.288,1157.216,3057.669,1291.489,3057.669,1457.145z"/>
						<path style="opacity:0.3;fill:#FFFFFF;" d="M2962.727,1652.434c-72.252,64.071-179.41,104.64-298.994,104.64
							c-81.558,0-157.311-18.862-220.144-51.177c-41.549,7.088-106.039,19.002-140.079,25.344
							c-10.002,1.865-18.233-7.95-14.643-17.487l38.004-101.026c-36.232-45.372-57.075-98.624-57.075-155.583
							c0-100.326,64.7-189.157,164.068-243.599c51.97,7.065,97.087,25.134,124.482,61.389
							c60.269,79.855-7.719,191.862,55.21,248.542c62.462,56.213,162.322-24.365,253.136,13.803
							C2900.826,1551.618,2935.869,1583.677,2962.727,1652.434z"/>
					</g>
				</g>
			</g>
			<g>
				<path style="fill:#FFFFFF;" d="M2475.588,1361.38c-0.708,2.145-3.072,3.342-6.62,3.108
					c-6.156,18.156-13.508,36.581-21.583,54.078l9.025,2.089c-0.476,2.392-2.375,4.078-6.411,4.589v151.583l-28.353,0.66v-111.744
					c-5.262,8.219-10.768,15.972-16.277,22.77c-3.839-6.431-12.245-19.064-17.294-25.259c21.367-25.217,42.404-69.726,54.791-112.13
					L2475.588,1361.38z M2612.117,1394.149c0,1.174-2.988,28.702-10.119,57.704l-17.063-2.886
					c13.149,24.822,24.424,56.895,28.559,78.687l-26.482,10.391c-3.233-21.867-14.568-55.429-27.09-80.311l24.088-8.994
					l-5.549-0.887c1.157-7.322,2.314-17.476,3.7-27.863l-28.514,0.205v122.522c0,21.762-4.653,32.04-45.323,32.988
					c-1.407-8.284-5.635-21.031-9.633-28.56c9.868,0.038,19.951-0.167,23.229-0.234c3.04-0.062,3.976-1.03,3.976-4.112v-122.404
					l-25.087,0.181c-7.53,16.715-16.013,31.798-25.458,43.821c-4.964-5.19-15.149-13.673-21.552-17.912
					c17.534-21.164,31.941-58.436,39.716-94.643l32.85,8.774c-0.701,1.899-2.808,3.324-6.319,3.09
					c-2.576,10.214-5.624,20.432-9.141,30.423l86.257-0.385L2612.117,1394.149z M2519.346,1459.847
					c-0.47,1.905-2.812,3.117-5.86,3.152c-7.039,27.892-19.028,58.768-32.936,78.318c-5.433-4.185-15.845-10.431-22.242-13.655
					c13.263-17.418,24.131-47.62,30.026-75.562L2519.346,1459.847z"/>
				<path style="fill:#FFFFFF;" d="M2719.738,1397.149l14.348,3.411l-1.342,4.647c-2.688,39.487-8.517,72.07-18.847,98.257
					c10.105,8.432,19.072,16.87,24.665,24.191l-16.13,22.842c-4.939-6.637-12.135-14.167-20.466-21.921
					c-10.603,18.383-24.403,32.677-41.425,44.05c-3.64-6.935-10.699-16.845-16.399-21.876c15.261-8.741,27.754-22.077,37.496-39.529
					c-4.075-3.433-8.382-6.397-12.465-9.604l-1.816,7.51l-22.302-11.578c5.244-19.515,10.936-46.034,16.396-73.455l-17.992,0.139
					v-26.008l22.762-0.113c2.953-16.371,5.676-32.266,7.942-46.752l30.733,3.258c-0.226,2.096-2.029,3.494-5.86,3.73
					c-2.258,12.117-4.74,25.641-7.45,39.638l23.657-0.117L2719.738,1397.149z M2686.389,1423.901
					c-3.617,17.531-7.467,35.307-11.09,51.698c5.435,3.429,11.317,7.314,17.192,11.427c6.32-18.026,10.83-39.272,13.531-63.276
					L2686.389,1423.901z M2852.559,1451.728v26.122l-48.265,0.658v59.432c0,22.805-7.504,31.272-48.99,31.778
					c-1.336-7.614-5.797-19.561-9.369-27.134c8.254,0.064,16.94,0.116,22.277,0.007c7.55-0.154,9.322-0.19,9.322-4.348v-59.37
					l-47.479,0.648v-26.466l47.479-0.514v-35.575l8.201,0.403c7.522-8.126,15.028-18.77,21.426-28.937l-69.049,0.276v-25.749
					l88.183-0.111l4.386-1.385l20.35,12.812c-0.874,1.609-3.059,2.759-5.244,3.226c-10.282,16.099-26.302,37.558-41.494,52.867
					v21.884L2852.559,1451.728z"/>
				<path style="fill:#FFFFFF;" d="M2886.458,1527.391c0-12.328,8.009-21.138,19.028-21.323c11.206-0.188,18.947,8.323,18.947,20.6
					c0,11.823-7.312,20.848-18.947,21.096C2893.819,1548.012,2886.458,1539.036,2886.458,1527.391z M2917.982,1489.702
					l-25.029,0.376l-4.33-120.007l33.661-0.069L2917.982,1489.702z"/>
			</g>
		</g>
		<g>
			
				<linearGradient id="SVGID_00000088106897326958320680000013897304024316786847_" gradientUnits="userSpaceOnUse" x1="1883.9431" y1="2144.4448" x2="2035.1069" y2="2298.3079">
				<stop  offset="0" style="stop-color:#AB316D"/>
				<stop  offset="1" style="stop-color:#792D3D"/>
			</linearGradient>
			<path style="fill:url(#SVGID_00000088106897326958320680000013897304024316786847_);" d="M1872.833,2247.184
				c0,0-2.12-50.488,24.841-84.99c26.961-34.502,63.75-82.904,54.295-52.141s-26.488,47.485-26.488,47.485
				s39.455,20.883,13.385,51.093s-29.72,43.767-29.72,46.374C1909.145,2257.612,1872.833,2247.184,1872.833,2247.184z"/>
			
				<linearGradient id="SVGID_00000094592923093290586180000013840868202960856483_" gradientUnits="userSpaceOnUse" x1="1170.0923" y1="2395.9539" x2="1723.2455" y2="2415.9131" gradientTransform="matrix(-1 0 0 1 3036.0095 0)">
				<stop  offset="0.0036" style="stop-color:#F36F56"/>
				<stop  offset="1" style="stop-color:#FFC444"/>
			</linearGradient>
			<path style="fill:url(#SVGID_00000094592923093290586180000013840868202960856483_);" d="M1863.139,2238.918
				c20.435-1.426,40.868-2.851,61.303-4.277c48.208,194.801,13.63,383.77-95.173,453.266
				c-169.99,108.577-485.908-95.987-554.37-318.729c-30.05-97.768-23.209-238.863,36.85-266.277
				c16.671-7.612,42.538-8.793,98.584,22.674c167.375,93.972,171.775,271.579,256.863,286.621
				C1705.028,2418.883,1766.119,2394.761,1863.139,2238.918z"/>
			
				<linearGradient id="SVGID_00000005968656198146381650000005649676040245108411_" gradientUnits="userSpaceOnUse" x1="-368.4121" y1="3865.855" x2="-1379.3221" y2="2414.5481" gradientTransform="matrix(-0.9968 0.0799 0.0799 0.9968 -324.9188 65.4365)">
				<stop  offset="0.0036" style="stop-color:#F36F56"/>
				<stop  offset="1" style="stop-color:#FFC444"/>
			</linearGradient>
			<path style="fill:url(#SVGID_00000005968656198146381650000005649676040245108411_);" d="M1395.128,3159.484
				c29.44-48.849-7.537-95.963-15.954-188.512c-9.539-104.893,30.868-122.359,70.831-296.19
				c26.575-115.61,52.086-226.597,21.636-356.513c-14.593-62.264-39.344-167.869-126.743-218.878
				c-45.102-26.323-106.684-23.691-228.005-17.342c-150.028,7.845-225.04,11.766-280.984,41.225
				c-8.189,4.314-178.383,96.887-190.097,247.785c-11.925,153.58,155.333,174.224,177.64,379.032
				c10.014,91.941-7.837,233.348-19.412,325.066c-11.116,88.065-18.765,110.614-1.386,137.275
				c41.887,64.264,170.124,45.946,426.601,9.323C1329.859,3207.387,1373.16,3195.936,1395.128,3159.484z"/>
			
				<linearGradient id="SVGID_00000148631115949735283570000014199858643693213312_" gradientUnits="userSpaceOnUse" x1="-368.5048" y1="3865.9331" x2="-1379.4326" y2="2414.6003" gradientTransform="matrix(-0.9968 0.0799 0.0799 0.9968 -324.9188 65.4365)">
				<stop  offset="0.0036" style="stop-color:#F36F56"/>
				<stop  offset="1" style="stop-color:#FFC444"/>
			</linearGradient>
			<path style="opacity:0.3;fill:url(#SVGID_00000148631115949735283570000014199858643693213312_);" d="M1004.898,2717.145
				c-10.845,39.918-49.848,69.733-77,166.827c-5.862,20.965-47.612,170.249,6.545,206.996
				c31.283,21.221,59.364-18.987,135.284-24.238c131.559-9.101,194.23,101.468,280.167,71.275
				c14.909-5.246,34.595-16.414,54.248-42.08c3.913,23.129,3.242,43.216-9.014,63.557c-21.968,36.452-65.269,47.903-165.874,62.271
				c-256.477,36.623-384.714,54.941-426.601-9.323c-17.379-26.661-9.73-49.21,1.386-137.275
				c11.576-91.718,29.426-233.125,19.412-325.066c-22.307-204.808-189.565-225.452-177.64-379.032
				c3.187-41.058,18.291-77.617,38.486-109.437C896.474,2347.48,1038.986,2591.707,1004.898,2717.145z"/>
			
				<linearGradient id="SVGID_00000031166509645535457970000012258665268998001549_" gradientUnits="userSpaceOnUse" x1="-984.0941" y1="3060.8838" x2="-821.0336" y2="3060.8838" gradientTransform="matrix(-0.9968 0.0799 0.0799 0.9968 -324.9188 65.4365)">
				<stop  offset="0" style="stop-color:#AB316D"/>
				<stop  offset="1" style="stop-color:#792D3D"/>
			</linearGradient>
			<path style="fill:url(#SVGID_00000031166509645535457970000012258665268998001549_);" d="M736.907,3019.251l42.451,27.105
				c7.622-8.801,25.269-26.559,52.822-32.622c31.043-6.822,66.676,2.963,67.505,12.87c0.665,7.938-21.034,15.942-24.388,17.182
				c-27.084,9.995-47.18,1.694-58.131,12.582c-3.872,3.851-8.699,11.011-19.797,17.647c-2.913,1.744-5.969,3.283-7.578,3.911
				c-18.077,7.029-49.087-24.442-51.755-27.191L736.907,3019.251z"/>
			
				<linearGradient id="SVGID_00000172442307274367204380000010514746414535694767_" gradientUnits="userSpaceOnUse" x1="-84.9104" y1="3668.3809" x2="-1095.8307" y2="2217.0593" gradientTransform="matrix(-0.9968 0.0799 0.0799 0.9968 -324.9188 65.4365)">
				<stop  offset="0.0036" style="stop-color:#F36F56"/>
				<stop  offset="1" style="stop-color:#FFC444"/>
			</linearGradient>
			<path style="fill:url(#SVGID_00000172442307274367204380000010514746414535694767_);" d="M862.324,2462.482
				c30.709-73.55,51.984-186.158,3.481-353.392c-319.599,125.933-482.596,424.477-418.952,661.139
				c52.464,195.098,243.34,290.126,285.918,310.119c9.907-22.552,19.816-45.096,29.722-67.647
				c-49.344-54.948-104.948-136.196-97.083-228.91C676.31,2655.255,800.152,2611.385,862.324,2462.482z"/>
			
				<linearGradient id="SVGID_00000015319985183118799100000001179067201435763624_" gradientUnits="userSpaceOnUse" x1="-2792.1426" y1="4268.6597" x2="-2792.1426" y2="3979.666" gradientTransform="matrix(-0.7795 0.6265 0.6265 0.7795 -3649.3015 622.2045)">
				<stop  offset="0" style="stop-color:#AB316D"/>
				<stop  offset="1" style="stop-color:#792D3D"/>
			</linearGradient>
			<path style="fill:url(#SVGID_00000015319985183118799100000001179067201435763624_);" d="M1109.038,1930.742
				c0,0-2.523,55.908-19.879,97.776c-15.683,37.84-98.174,61.627-114.893,70.072c-16.723,8.446,31.326,33.136,79.579,37.987
				c48.25,4.852,186.048-6.104,210.888-24.397c24.84-18.291-19.96-16.915-54.402-29.56c-34.439-12.642-54.353-79.998-48.274-110.569
				C1168.133,1941.477,1109.038,1930.742,1109.038,1930.742z"/>
			
				<linearGradient id="SVGID_00000114049528762775090180000003392037556555273869_" gradientUnits="userSpaceOnUse" x1="1880.2223" y1="2139.8035" x2="1888.7329" y2="2034.8395" gradientTransform="matrix(-1 0 0 1 3036.0095 0)">
				<stop  offset="0" style="stop-color:#444B8C"/>
				<stop  offset="0.9964" style="stop-color:#26264F"/>
			</linearGradient>
			<path style="fill:url(#SVGID_00000114049528762775090180000003392037556555273869_);" d="M1185.353,1910.472
				c25.037-24.599,28.531-27.472,31.26-35.975c10.942-34.127-15.527-80.863-50.246-92.369c-1.806-0.596-25.089-8.051-33.976,2.052
				c-7.548,8.577,3.556,20.425-1.724,36.957c-4.945,15.478-18.363,16.637-43.23,36.934c-20.486,16.715-33.216,27.107-36.153,41.724
				c-6.055,30.137,30.425,73.812,62.721,72.624C1125.619,1971.992,1128.778,1966.06,1185.353,1910.472z"/>
			<g>
				
					<linearGradient id="SVGID_00000062875881020715243250000007186263907847127191_" gradientUnits="userSpaceOnUse" x1="-2996.4204" y1="4185.3745" x2="-2861.3052" y2="3922.6504" gradientTransform="matrix(-0.7795 0.6265 0.6265 0.7795 -3649.3015 622.2045)">
					<stop  offset="0" style="stop-color:#AB316D"/>
					<stop  offset="1" style="stop-color:#792D3D"/>
				</linearGradient>
				<path style="fill:url(#SVGID_00000062875881020715243250000007186263907847127191_);" d="M1117.166,1977.075
					c0,0,26.613,30.134,67.155,20.172c36.299-8.918,27.037-92.229,0.472-105.539c-8.861-4.438-24.964-4.071-37.074,1.764
					c-7.155,3.448-9.142,7.029-20.939,12.436c-10.88,4.984-14.33,4.293-17.255,7.805c-3.663,4.389-5.238,13.835,6.234,36.635
					c-8.268-5.851-17.162-7.077-22.62-3.206c-0.871,0.62-3.089,2.784-4.044,5.634
					C1085.635,1963.097,1096.36,1973.582,1117.166,1977.075z"/>
			</g>
		</g>
</g>
</svg>
